<?xml version="1.0" encoding="iso-8859-1"?>
<!-- Uploaded to: SVG Repo, www.svgrepo.com, Generator: SVG Repo Mixer Tools -->
<svg height="800px" width="800px" version="1.1" id="Layer_1" xmlns="http://www.w3.org/2000/svg" xmlns:xlink="http://www.w3.org/1999/xlink" 
	 viewBox="0 0 512 512" xml:space="preserve">
<circle style="fill:#366695;" cx="256" cy="256" r="256"/>
<g>
	<path style="fill:#273B7A;" d="M131.505,325.97l180.65,179.836c96.14-21.52,171.854-97.106,193.55-193.181L381.271,188.192
		L131.505,325.97z"/>
	<polygon style="fill:#273B7A;" points="131.612,260.396 204.283,331.852 214.626,271.515 	"/>
	<polygon style="fill:#273B7A;" points="131.558,196.922 177.85,241.635 207.731,204.857 	"/>
</g>
<path style="fill:#71E2EF;" d="M252.999,383.672L133.33,327.259c-5.382-2.538-5.382-10.195,0-12.733l119.668-56.413
	c1.9-0.896,4.101-0.896,6.003,0l119.668,56.413c5.382,2.538,5.382,10.195,0,12.733l-119.668,56.413
	C257.1,384.569,254.9,384.569,252.999,383.672z"/>
<path style="fill:#38C6D9;" d="M378.67,314.528l-119.668-56.413c-1.129-0.533-2.36-0.709-3.575-0.609v126.774
	c1.215,0.1,2.446-0.078,3.575-0.609l119.668-56.413C384.053,324.724,384.053,317.066,378.67,314.528z"/>
<path style="fill:#FF6161;" d="M252.999,317.993L133.33,261.58c-5.382-2.538-5.382-10.195,0-12.733l119.668-56.413
	c1.9-0.896,4.101-0.896,6.003,0l119.668,56.413c5.382,2.538,5.382,10.195,0,12.733l-119.668,56.413
	C257.1,318.89,254.9,318.89,252.999,317.993z"/>
<path style="fill:#E03A00;" d="M378.67,248.849l-119.668-56.413c-1.129-0.533-2.36-0.709-3.575-0.609v126.774
	c1.215,0.1,2.446-0.078,3.575-0.609L378.67,261.58C384.053,259.044,384.053,251.387,378.67,248.849z"/>
<path style="fill:#FEE187;" d="M252.999,254.543L133.33,198.13c-5.382-2.538-5.382-10.195,0-12.733l119.668-56.413
	c1.9-0.896,4.101-0.896,6.003,0l119.668,56.413c5.382,2.538,5.382,10.195,0,12.733l-119.668,56.413
	C257.1,255.44,254.9,255.44,252.999,254.543z"/>
<path style="fill:#FFC61B;" d="M378.67,185.397l-119.668-56.413c-1.129-0.533-2.36-0.709-3.575-0.609V255.15
	c1.215,0.1,2.446-0.078,3.575-0.609l119.668-56.413C384.053,195.593,384.053,187.935,378.67,185.397z"/>
</svg>