<svg width="96px" height="96px" viewBox="0 0 96 96" xmlns="http://www.w3.org/2000/svg">
  <g id="Group_18" data-name="Group 18" transform="translate(-111 -852)">
    <circle id="Ellipse_7" data-name="Ellipse 7" cx="34" cy="34" r="34" transform="translate(125 878)" fill="#fff" stroke="#2d4d68" stroke-linejoin="round" stroke-width="4"/>
    <rect id="Rectangle_58" data-name="Rectangle 58" width="30" height="10" rx="5" transform="translate(154 912)" fill="#f6941d" stroke="#2d4d68" stroke-linejoin="round" stroke-width="4"/>
    <rect id="Rectangle_62" data-name="Rectangle 62" width="92" height="20" rx="10" transform="translate(113 877)" fill="#ff514d" stroke="#2d4d68" stroke-linejoin="round" stroke-width="4"/>
    <line id="Line_16" data-name="Line 16" x2="12" transform="translate(135 911)" fill="none" stroke="#2d4d68" stroke-linecap="round" stroke-linejoin="round" stroke-width="4"/>
    <path id="Path_59" data-name="Path 59" d="M143,919a16,16,0,0,0,16,16" fill="none" stroke="#2d4d68" stroke-linecap="round" stroke-linejoin="round" stroke-width="4"/>
    <path id="Rectangle_63" data-name="Rectangle 63" d="M23,0h2A23,23,0,0,1,48,23v0a0,0,0,0,1,0,0H0a0,0,0,0,1,0,0v0A23,23,0,0,1,23,0Z" transform="translate(135 854)" fill="#ff514d" stroke="#2d4d68" stroke-linejoin="round" stroke-width="4"/>
  </g>
</svg>
